<svg width="26" height="26" viewBox="0 0 26 26" fill="none" xmlns="http://www.w3.org/2000/svg">
<path d="M12.9996 2.16736C15.6904 2.13551 18.2897 3.14656 20.2481 4.98556L17.1553 8.07842C16.0367 7.01164 14.544 6.43049 12.9996 6.45437C10.1734 6.45437 7.77318 8.36104 6.91737 10.9285C6.46359 12.2739 6.46359 13.7307 6.91737 15.0762C7.78114 17.6396 10.1774 19.5463 13.0036 19.5463C14.4644 19.5463 15.7183 19.1721 16.6895 18.5113L16.6855 18.513C17.7518 17.8055 18.5025 16.7216 18.7953 15.4864L18.8509 15.2195H12.9996V11.0479H23.2176C23.345 11.7723 23.4047 12.5127 23.4047 13.2491C23.4047 16.545 22.2264 19.3313 20.1765 21.2181L20.1781 21.2149C18.4633 22.802 16.1343 23.7486 13.3781 23.8279L12.9996 23.8333C8.90365 23.8333 5.15798 21.5246 3.31898 17.8665L3.16024 17.5365C1.78447 14.5486 1.83738 11.0898 3.31898 8.13813L3.47661 7.83611C5.36635 4.34957 9.01742 2.16736 12.9996 2.16736Z" fill="white"/>
</svg>
