<svg width="26" height="26" viewBox="0 0 26 26" fill="none" xmlns="http://www.w3.org/2000/svg">
<path fill-rule="evenodd" clip-rule="evenodd" d="M21.6062 8.65315C21.6199 8.84272 21.6199 9.03234 21.6199 9.22191C21.6199 15.0042 17.1519 21.6667 8.9856 21.6667C6.46972 21.6667 4.13259 20.949 2.16663 19.7032C2.52409 19.7438 2.86775 19.7573 3.23896 19.7573C5.31486 19.7573 7.22585 19.0667 8.75188 17.8886C6.79967 17.848 5.16366 16.5886 4.59999 14.8552C4.87496 14.8958 5.14991 14.9229 5.43864 14.9229C5.83732 14.9229 6.23604 14.8688 6.60721 14.774C4.57252 14.3677 3.04646 12.6073 3.04646 10.4813V10.4271C3.6376 10.7521 4.32505 10.9553 5.05364 10.9823C3.85756 10.1969 3.07396 8.85627 3.07396 7.33959C3.07396 6.52711 3.29389 5.78232 3.67886 5.13231C5.86478 7.78648 9.15056 9.51978 12.835 9.7094C12.7662 9.38439 12.725 9.04589 12.725 8.70734C12.725 6.29689 14.7047 4.33337 17.1656 4.33337C18.4441 4.33337 19.5989 4.8615 20.4101 5.71462C21.4136 5.52505 22.376 5.15941 23.2284 4.65838C22.8984 5.67402 22.1973 6.52715 21.2762 7.06878C22.1698 6.97403 23.0359 6.73023 23.8333 6.39172C23.2285 7.25835 22.4723 8.0302 21.6062 8.65315Z" fill="white"/>
</svg>
