<svg width="216" height="41" viewBox="0 0 216 41" fill="none" xmlns="http://www.w3.org/2000/svg">
<path d="M75.5 1.90002H80.4C81.5 1.90002 82.4 2.00002 82.9 2.20002C83.7 2.40002 84.4 2.80002 84.9 3.40002C85.5 4.00002 85.9 4.70002 86.2 5.60002C86.5 6.50002 86.6 7.50002 86.6 8.80002C86.6 9.90002 86.5 10.8 86.2 11.6C85.9 12.6 85.4 13.4 84.8 14C84.3 14.5 83.7 14.8 82.9 15.1C82.3 15.3 81.5 15.4 80.5 15.4H75.4C75.5 15.3 75.5 1.90002 75.5 1.90002ZM78.2 4.20002V13H80.2C80.9 13 81.5 13 81.8 12.9C82.2 12.8 82.6 12.6 82.9 12.3C83.2 12 83.4 11.6 83.6 11C83.8 10.4 83.9 9.60002 83.9 8.60002C83.9 7.60002 83.8 6.80002 83.6 6.20002C83.4 5.60002 83.2 5.20002 82.8 4.90002C82.5 4.60002 82.1 4.40002 81.6 4.30002C81.2 4.20002 80.5 4.20002 79.4 4.20002H78.2ZM89 15.3V1.90002H94.7C96.1 1.90002 97.2 2.00002 97.8 2.30002C98.4 2.50002 99 3.00002 99.4 3.60002C99.8 4.20002 100 4.90002 100 5.70002C100 6.70002 99.7 7.50002 99.1 8.20002C98.5 8.90002 97.6 9.30002 96.5 9.40002C97.1 9.70002 97.6 10.1 97.9 10.5C98.3 10.9 98.8 11.6 99.4 12.7L101 15.3H97.8L95.9 12.4C95.2 11.4 94.7 10.7 94.5 10.4C94.2 10.1 94 9.90002 93.7 9.80002C93.4 9.70002 93 9.60002 92.3 9.60002H91.8V15.2C91.7 15.3 89 15.3 89 15.3ZM91.7 7.60002H93.7C95 7.60002 95.8 7.50002 96.1 7.40002C96.4 7.30002 96.7 7.10002 96.9 6.80002C97.1 6.50002 97.2 6.20002 97.2 5.80002C97.2 5.30002 97.1 5.00002 96.8 4.70002C96.6 4.40002 96.2 4.20002 95.8 4.20002C95.6 4.20002 94.9 4.20002 93.8 4.20002H91.7V7.60002ZM102.4 15.3V1.90002H112.3V4.20002H105.1V7.20002H111.8V9.50002H105.1V13H112.5V15.3H102.4ZM126.8 15.3H123.9L122.7 12.3H117.4L116.3 15.3H113.4L118.6 2.00002H121.5L126.8 15.3ZM121.9 10L120 5.00002L118.2 9.90002H121.9V10ZM128.2 15.3V1.90002H132.2L134.6 11L137 1.90002H141V15.2H138.5V4.70002L135.9 15.2H133.3L130.7 4.70002V15.2H128.2V15.3ZM148 39.6V36.9H150.7V39.6H148ZM162.5 32.3L159.8 32.8C159.7 32.3 159.5 31.9 159.2 31.6C158.9 31.3 158.5 31.2 158 31.2C157.3 31.2 156.8 31.4 156.4 31.9C156 32.4 155.8 33.2 155.8 34.2C155.8 35.4 156 36.3 156.4 36.8C156.8 37.3 157.4 37.6 158 37.6C158.5 37.6 158.9 37.4 159.3 37.2C159.6 36.9 159.9 36.4 160 35.7L162.7 36.2C162.4 37.4 161.9 38.4 161.1 39C160.3 39.6 159.3 39.9 157.9 39.9C156.4 39.9 155.2 39.4 154.3 38.5C153.4 37.6 153 36.2 153 34.6C153 32.9 153.4 31.6 154.3 30.6C155.2 29.7 156.4 29.2 157.9 29.2C159.1 29.2 160.1 29.5 160.9 30C161.6 30.4 162.2 31.2 162.5 32.3ZM163.9 34.3C163.9 33.4 164.1 32.5 164.6 31.7C165 30.9 165.7 30.2 166.5 29.8C167.3 29.4 168.2 29.1 169.2 29.1C170.8 29.1 172 29.6 173 30.6C174 31.6 174.5 32.9 174.5 34.4C174.5 36 174 37.2 173 38.3C172 39.3 170.7 39.8 169.2 39.8C168.3 39.8 167.4 39.6 166.5 39.2C165.7 38.8 165 38.1 164.6 37.3C164.1 36.5 163.9 35.5 163.9 34.3ZM166.7 34.5C166.7 35.5 166.9 36.3 167.4 36.8C167.9 37.3 168.5 37.6 169.2 37.6C169.9 37.6 170.5 37.3 171 36.8C171.5 36.3 171.7 35.5 171.7 34.4C171.7 33.4 171.5 32.6 171 32.1C170.5 31.6 169.9 31.3 169.2 31.3C168.5 31.3 167.9 31.6 167.4 32.1C166.9 32.7 166.7 33.4 166.7 34.5ZM176.4 29.3H178.9V30.7C179.8 29.6 180.9 29.1 182.1 29.1C182.8 29.1 183.3 29.2 183.8 29.5C184.3 29.8 184.7 30.2 185 30.7C185.5 30.2 185.9 29.7 186.5 29.5C187 29.2 187.6 29.1 188.2 29.1C189 29.1 189.6 29.3 190.1 29.6C190.6 29.9 191 30.4 191.3 30.9C191.5 31.3 191.6 32 191.6 33V39.6H188.9V33.7C188.9 32.7 188.8 32 188.6 31.7C188.4 31.3 188 31.1 187.4 31.1C187 31.1 186.7 31.2 186.3 31.4C186 31.6 185.7 32 185.6 32.4C185.5 32.9 185.4 33.6 185.4 34.5V39.4H182.7V34C182.7 33 182.7 32.4 182.6 32.1C182.5 31.8 182.4 31.6 182.2 31.5C182 31.4 181.7 31.3 181.4 31.3C181 31.3 180.6 31.4 180.3 31.6C180 31.8 179.7 32.1 179.6 32.6C179.5 33 179.4 33.7 179.4 34.7V39.7H176.7L176.4 29.3Z" fill="#009EE8"/>
<path d="M152.9 10L155.7 10.9C155.3 12.5 154.6 13.6 153.6 14.4C152.6 15.2 151.4 15.5 149.8 15.5C147.9 15.5 146.4 14.9 145.2 13.6C144 12.3 143.4 10.6 143.4 8.30005C143.4 5.90005 144 4.10005 145.2 2.80005C146.4 1.50005 148 0.800049 150 0.800049C151.7 0.800049 153.1 1.30005 154.2 2.30005C154.8 2.90005 155.3 3.80005 155.7 4.90005L152.9 5.60005C152.7 4.90005 152.4 4.30005 151.9 3.90005C151.4 3.50005 150.7 3.30005 150 3.30005C148.9 3.30005 148.1 3.70005 147.4 4.40005C146.7 5.20005 146.4 6.40005 146.4 8.10005C146.4 9.90005 146.7 11.2 147.4 11.9C148 12.7 148.9 13 149.9 13C150.7 13 151.3 12.8 151.9 12.3C152.3 11.8 152.7 11.1 152.9 10ZM158.1 15.3V1.10005H164.1C165.6 1.10005 166.7 1.20005 167.4 1.50005C168.1 1.80005 168.6 2.20005 169 2.90005C169.4 3.60005 169.6 4.30005 169.6 5.10005C169.6 6.20005 169.3 7.00005 168.7 7.70005C168.1 8.40005 167.1 8.80005 165.9 9.00005C166.5 9.40005 167 9.80005 167.4 10.2C167.8 10.6 168.3 11.4 169 12.5L170.7 15.3H167.3L165.2 12.2C164.5 11.1 164 10.4 163.7 10.1C163.4 9.80005 163.1 9.60005 162.8 9.50005C162.5 9.40005 162 9.30005 161.4 9.30005H161V15.2H158.1V15.3ZM161 7.10005H163.1C164.5 7.10005 165.3 7.00005 165.7 6.90005C166 6.80005 166.3 6.60005 166.5 6.30005C166.7 6.00005 166.8 5.70005 166.8 5.20005C166.8 4.70005 166.7 4.30005 166.4 4.00005C166.1 3.70005 165.8 3.50005 165.3 3.40005C165.1 3.40005 164.4 3.40005 163.2 3.40005H161V7.10005ZM172.4 15.3V1.10005H182.9V3.50005H175.3V6.60005H182.4V9.00005H175.3V12.8H183.2V15.2H172.4V15.3ZM185.6 1.10005H190.8C192 1.10005 192.9 1.20005 193.5 1.40005C194.3 1.60005 195 2.10005 195.6 2.70005C196.2 3.30005 196.6 4.10005 197 5.00005C197.3 5.90005 197.5 7.00005 197.5 8.30005C197.5 9.50005 197.4 10.5 197.1 11.3C196.7 12.3 196.2 13.2 195.6 13.8C195.1 14.3 194.4 14.7 193.6 14.9C193 15.1 192.1 15.2 191.1 15.2H185.7C185.6 15.3 185.6 1.10005 185.6 1.10005ZM188.4 3.50005V12.9H190.5C191.3 12.9 191.9 12.9 192.2 12.8C192.7 12.7 193 12.5 193.4 12.2C193.7 11.9 194 11.5 194.1 10.8C194.3 10.2 194.4 9.30005 194.4 8.20005C194.4 7.10005 194.3 6.30005 194.1 5.70005C193.9 5.10005 193.6 4.70005 193.3 4.30005C193 4.00005 192.5 3.80005 192 3.60005C191.6 3.50005 190.8 3.50005 189.7 3.50005H188.4ZM199.8 15.3V1.10005H202.7V15.3H199.8ZM208.5 15.3V3.50005H204.3V1.10005H215.5V3.50005H211.3V15.3H208.5ZM75.6 39.6V25.4H79.9L82.4 35.1L84.9 25.4H89.2V39.6H86.6V28.4001L83.8 39.6H81L78.2 28.4001V39.6H75.6ZM104.8 39.6H101.7L100.5 36.4001H94.8L93.6 39.6H90.6L96.1 25.4H99.1L104.8 39.6ZM99.6 34L97.6 28.8L95.7 34H99.6ZM106.4 39.6V25.4H109.3V31.7001L115.1 25.4H118.9L113.6 30.9001L119.2 39.5H115.5L111.6 32.8L109.3 35.2001V39.5C109.3 39.6 106.4 39.6 106.4 39.6ZM120.6 39.6V25.4H131.1V27.8H123.5V30.9001H130.6V33.3H123.5V37.1H131.4V39.5H120.6V39.6ZM133.8 39.6V25.4H139.8C141.3 25.4 142.4 25.5 143.1 25.8C143.8 26.1 144.3 26.5 144.7 27.2001C145.1 27.9001 145.3 28.6001 145.3 29.4001C145.3 30.5001 145 31.3 144.4 32C143.8 32.7001 142.9 33.1 141.6 33.3C142.2 33.7001 142.7 34.1 143.1 34.5C143.5 34.9001 144 35.7001 144.7 36.8L146.4 39.6H143L141 36.5C140.3 35.4001 139.8 34.7001 139.5 34.4001C139.2 34.1001 138.9 33.9 138.6 33.8C138.3 33.7001 137.8 33.6 137.2 33.6H136.6V39.5L133.8 39.6ZM136.7 31.4001H138.8C140.2 31.4001 141 31.3001 141.4 31.2001C141.7 31.1 142 30.9 142.2 30.6C142.4 30.3 142.5 30 142.5 29.5C142.5 29 142.4 28.6 142.1 28.3C141.8 28 141.5 27.8001 141 27.7001C140.8 27.7001 140.1 27.7001 138.9 27.7001H136.7V31.4001Z" fill="white"/>
<path fill-rule="evenodd" clip-rule="evenodd" d="M63 36.7V4.3C63 1.9 61.2 0 58.9 0H4.30001C2.00001 0 0.100006 1.9 0.100006 4.3V36.7C0.100006 39.1 2.00001 41 4.30001 41H58.9C61.2 41 63 39.1 63 36.7Z" fill="#009EE8"/>
<path fill-rule="evenodd" clip-rule="evenodd" d="M0.100006 36.9C0.200006 39.2 2.10001 41 4.30001 41H27.8L32.9 35.8C32.4 36.2 31.7 36.5 31 36.5H29.1H24.4H11.7C9.50001 36.5 7.40001 35.6 5.90001 34.1C3.20001 31 1.80001 32.9 0.800006 32.9H0.400006C0.300006 32.9 0.200006 32.9 0.100006 32.9C0.100006 32.9 0.100006 36.9 0.100006 36.9Z" fill="#005898"/>
<path fill-rule="evenodd" clip-rule="evenodd" d="M0 13.2V33.9C0.7 33.3 1.7 32.9 2.7 32.9H3.1C4.2 32.9 5.2 33.3 6 34.1C7.5 35.6 9.6 36.5 11.8 36.5H24.5H29.2H31C32.7 36.5 34.1 35.1 34.1 33.4C34.1 31.8 33 30.5 31.5 30.3C33 30 34.1 28.8 34.1 27.2C34.1 25.6 32.9 24.3 31.4 24.1C32.9 23.8 34.1 22.2 34.1 20.6C34.1 19.1 33.1 17.9 31.7 17.5H44.7C46.4 17.5 47.8 16.1 47.8 14.4C47.8 12.7 46.4 11.3 44.7 11.3H29.1H26.4H25.4C26.5 10.9 27.3 9.8 27.3 8.5C27.3 6.8 25.9 5.5 24.3 5.5H14.9C13.9 5.5 12.9 5.9 12.1 6.6L6 12.6C5.2 13.4 4.1 13.8 3 13.8H2.1C1.3 13.7 0.6 13.5 0 13.2Z" fill="white"/>
<path d="M46.6 16.8C46.1 17.2 45.4 17.5 44.6 17.5H31.6C33 17.8 34 19.1 34 20.6C34 22.2 32.8 23.8 31.3 24.1C32.8 24.3 34 25.6 34 27.2001C34 28.7001 32.9 30 31.4 30.3C31.8 30.4 32.3 30.5 32.6 30.8C32.7 30.8 46.6 16.8 46.6 16.8Z" fill="#005898"/>
</svg>
