<svg width="408" height="49" viewBox="0 0 408 49" fill="none" xmlns="http://www.w3.org/2000/svg">
<path d="M75.5 5.90002H80.4C81.5 5.90002 82.4 6.00002 82.9 6.20002C83.7 6.40002 84.4 6.80002 84.9 7.40002C85.5 8.00002 85.9 8.70002 86.2 9.60002C86.5 10.5 86.6 11.5 86.6 12.8C86.6 13.9 86.5 14.8 86.2 15.6C85.9 16.6 85.4 17.4 84.8 18C84.3 18.5 83.7 18.8 82.9 19.1C82.3 19.3 81.5 19.4 80.5 19.4H75.4C75.5 19.3 75.5 5.90002 75.5 5.90002ZM78.2 8.20002V17H80.2C80.9 17 81.5 17 81.8 16.9C82.2 16.8 82.6 16.6 82.9 16.3C83.2 16 83.4 15.6 83.6 15C83.8 14.4 83.9 13.6 83.9 12.6C83.9 11.6 83.8 10.8 83.6 10.2C83.4 9.60002 83.2 9.20002 82.8 8.90002C82.5 8.60002 82.1 8.40002 81.6 8.30002C81.2 8.20002 80.5 8.20002 79.4 8.20002H78.2ZM89 19.3V5.90002H94.7C96.1 5.90002 97.2 6.00002 97.8 6.30002C98.4 6.50002 99 7.00002 99.4 7.60002C99.8 8.20002 100 8.90002 100 9.70002C100 10.7 99.7 11.5 99.1 12.2C98.5 12.9 97.6 13.3 96.5 13.4C97.1 13.7 97.6 14.1 97.9 14.5C98.3 14.9 98.8 15.6 99.4 16.7L101 19.3H97.8L95.9 16.4C95.2 15.4 94.7 14.7 94.5 14.4C94.2 14.1 94 13.9 93.7 13.8C93.4 13.7 93 13.6 92.3 13.6H91.8V19.2C91.7 19.3 89 19.3 89 19.3ZM91.7 11.6H93.7C95 11.6 95.8 11.5 96.1 11.4C96.4 11.3 96.7 11.1 96.9 10.8C97.1 10.5 97.2 10.2 97.2 9.80002C97.2 9.30002 97.1 9.00002 96.8 8.70002C96.6 8.40002 96.2 8.20002 95.8 8.20002C95.6 8.20002 94.9 8.20002 93.8 8.20002H91.7V11.6ZM102.4 19.3V5.90002H112.3V8.20002H105.1V11.2H111.8V13.5H105.1V17H112.5V19.3H102.4ZM126.8 19.3H123.9L122.7 16.3H117.4L116.3 19.3H113.4L118.6 6.00002H121.5L126.8 19.3ZM121.9 14L120 9.00002L118.2 13.9H121.9V14ZM128.2 19.3V5.90002H132.2L134.6 15L137 5.90002H141V19.2H138.5V8.70002L135.9 19.2H133.3L130.7 8.70002V19.2H128.2V19.3ZM148 43.6V40.9H150.7V43.6H148ZM162.5 36.3L159.8 36.8C159.7 36.3 159.5 35.9 159.2 35.6C158.9 35.3 158.5 35.2 158 35.2C157.3 35.2 156.8 35.4 156.4 35.9C156 36.4 155.8 37.2 155.8 38.2C155.8 39.4 156 40.3 156.4 40.8C156.8 41.3 157.4 41.6 158 41.6C158.5 41.6 158.9 41.4 159.3 41.2C159.6 40.9 159.9 40.4 160 39.7L162.7 40.2C162.4 41.4 161.9 42.4 161.1 43C160.3 43.6 159.3 43.9 157.9 43.9C156.4 43.9 155.2 43.4 154.3 42.5C153.4 41.6 153 40.2 153 38.6C153 36.9 153.4 35.6 154.3 34.6C155.2 33.7 156.4 33.2 157.9 33.2C159.1 33.2 160.1 33.5 160.9 34C161.6 34.4 162.2 35.2 162.5 36.3ZM163.9 38.3C163.9 37.4 164.1 36.5 164.6 35.7C165 34.9 165.7 34.2 166.5 33.8C167.3 33.4 168.2 33.1 169.2 33.1C170.8 33.1 172 33.6 173 34.6C174 35.6 174.5 36.9 174.5 38.4C174.5 40 174 41.2 173 42.3C172 43.3 170.7 43.8 169.2 43.8C168.3 43.8 167.4 43.6 166.5 43.2C165.7 42.8 165 42.1 164.6 41.3C164.1 40.5 163.9 39.5 163.9 38.3ZM166.7 38.5C166.7 39.5 166.9 40.3 167.4 40.8C167.9 41.3 168.5 41.6 169.2 41.6C169.9 41.6 170.5 41.3 171 40.8C171.5 40.3 171.7 39.5 171.7 38.4C171.7 37.4 171.5 36.6 171 36.1C170.5 35.6 169.9 35.3 169.2 35.3C168.5 35.3 167.9 35.6 167.4 36.1C166.9 36.7 166.7 37.4 166.7 38.5ZM176.4 33.3H178.9V34.7C179.8 33.6 180.9 33.1 182.1 33.1C182.8 33.1 183.3 33.2 183.8 33.5C184.3 33.8 184.7 34.2 185 34.7C185.5 34.2 185.9 33.7 186.5 33.5C187 33.2 187.6 33.1 188.2 33.1C189 33.1 189.6 33.3 190.1 33.6C190.6 33.9 191 34.4 191.3 34.9C191.5 35.3 191.6 36 191.6 37V43.6H188.9V37.7C188.9 36.7 188.8 36 188.6 35.7C188.4 35.3 188 35.1 187.4 35.1C187 35.1 186.7 35.2 186.3 35.4C186 35.6 185.7 36 185.6 36.4C185.5 36.9 185.4 37.6 185.4 38.5V43.4H182.7V38C182.7 37 182.7 36.4 182.6 36.1C182.5 35.8 182.4 35.6 182.2 35.5C182 35.4 181.7 35.3 181.4 35.3C181 35.3 180.6 35.4 180.3 35.6C180 35.8 179.7 36.1 179.6 36.6C179.5 37 179.4 37.7 179.4 38.7V43.7H176.7L176.4 33.3Z" fill="#009EE8"/>
<path d="M152.9 14L155.7 14.9C155.3 16.5 154.6 17.6 153.6 18.4C152.6 19.2 151.4 19.5 149.8 19.5C147.9 19.5 146.4 18.9 145.2 17.6C144 16.3 143.4 14.6 143.4 12.3C143.4 9.90002 144 8.10002 145.2 6.80002C146.4 5.50002 148 4.80002 150 4.80002C151.7 4.80002 153.1 5.30002 154.2 6.30002C154.8 6.90002 155.3 7.80002 155.7 8.90002L152.9 9.60002C152.7 8.90002 152.4 8.30002 151.9 7.90002C151.4 7.50002 150.7 7.30002 150 7.30002C148.9 7.30002 148.1 7.70002 147.4 8.40002C146.7 9.20002 146.4 10.4 146.4 12.1C146.4 13.9 146.7 15.2 147.4 15.9C148 16.7 148.9 17 149.9 17C150.7 17 151.3 16.8 151.9 16.3C152.3 15.8 152.7 15.1 152.9 14ZM158.1 19.3V5.10002H164.1C165.6 5.10002 166.7 5.20002 167.4 5.50002C168.1 5.80002 168.6 6.20002 169 6.90002C169.4 7.60002 169.6 8.30002 169.6 9.10002C169.6 10.2 169.3 11 168.7 11.7C168.1 12.4 167.1 12.8 165.9 13C166.5 13.4 167 13.8 167.4 14.2C167.8 14.6 168.3 15.4 169 16.5L170.7 19.3H167.3L165.2 16.2C164.5 15.1 164 14.4 163.7 14.1C163.4 13.8 163.1 13.6 162.8 13.5C162.5 13.4 162 13.3 161.4 13.3H161V19.2H158.1V19.3ZM161 11.1H163.1C164.5 11.1 165.3 11 165.7 10.9C166 10.8 166.3 10.6 166.5 10.3C166.7 10 166.8 9.70002 166.8 9.20002C166.8 8.70002 166.7 8.30002 166.4 8.00002C166.1 7.70002 165.8 7.50002 165.3 7.40002C165.1 7.40002 164.4 7.40002 163.2 7.40002H161V11.1ZM172.4 19.3V5.10002H182.9V7.50002H175.3V10.6H182.4V13H175.3V16.8H183.2V19.2H172.4V19.3ZM185.6 5.10002H190.8C192 5.10002 192.9 5.20002 193.5 5.40002C194.3 5.60002 195 6.10002 195.6 6.70002C196.2 7.30002 196.6 8.10002 197 9.00002C197.3 9.90002 197.5 11 197.5 12.3C197.5 13.5 197.4 14.5 197.1 15.3C196.7 16.3 196.2 17.2 195.6 17.8C195.1 18.3 194.4 18.7 193.6 18.9C193 19.1 192.1 19.2 191.1 19.2H185.7C185.6 19.3 185.6 5.10002 185.6 5.10002ZM188.4 7.50002V16.9H190.5C191.3 16.9 191.9 16.9 192.2 16.8C192.7 16.7 193 16.5 193.4 16.2C193.7 15.9 194 15.5 194.1 14.8C194.3 14.2 194.4 13.3 194.4 12.2C194.4 11.1 194.3 10.3 194.1 9.70002C193.9 9.10002 193.6 8.70002 193.3 8.30002C193 8.00002 192.5 7.80002 192 7.60002C191.6 7.50002 190.8 7.50002 189.7 7.50002H188.4ZM199.8 19.3V5.10002H202.7V19.3H199.8ZM208.5 19.3V7.50002H204.3V5.10002H215.5V7.50002H211.3V19.3H208.5ZM75.6 43.6V29.4H79.9L82.4 39.1L84.9 29.4H89.2V43.6H86.6V32.4L83.8 43.6H81L78.2 32.4V43.6H75.6ZM104.8 43.6H101.7L100.5 40.4H94.8L93.6 43.6H90.6L96.1 29.4H99.1L104.8 43.6ZM99.6 38L97.6 32.8L95.7 38H99.6ZM106.4 43.6V29.4H109.3V35.7L115.1 29.4H118.9L113.6 34.9L119.2 43.5H115.5L111.6 36.8L109.3 39.2V43.5C109.3 43.6 106.4 43.6 106.4 43.6ZM120.6 43.6V29.4H131.1V31.8H123.5V34.9H130.6V37.3H123.5V41.1H131.4V43.5H120.6V43.6ZM133.8 43.6V29.4H139.8C141.3 29.4 142.4 29.5 143.1 29.8C143.8 30.1 144.3 30.5 144.7 31.2C145.1 31.9 145.3 32.6 145.3 33.4C145.3 34.5 145 35.3 144.4 36C143.8 36.7 142.9 37.1 141.6 37.3C142.2 37.7 142.7 38.1 143.1 38.5C143.5 38.9 144 39.7 144.7 40.8L146.4 43.6H143L141 40.5C140.3 39.4 139.8 38.7 139.5 38.4C139.2 38.1 138.9 37.9 138.6 37.8C138.3 37.7 137.8 37.6 137.2 37.6H136.6V43.5L133.8 43.6ZM136.7 35.4H138.8C140.2 35.4 141 35.3 141.4 35.2C141.7 35.1 142 34.9 142.2 34.6C142.4 34.3 142.5 34 142.5 33.5C142.5 33 142.4 32.6 142.1 32.3C141.8 32 141.5 31.8 141 31.7C140.8 31.7 140.1 31.7 138.9 31.7H136.7V35.4Z" fill="#005898"/>
<path d="M245.2 19.3V7.90002H252.9V9.20002H246.7V12.7H252V14H246.7V19.2H245.2V19.3ZM254.7 9.50002V7.90002H256.1V9.50002H254.7ZM254.7 19.3V11H256.1V19.2H254.7V19.3ZM258.2 19.3V11H259.5V12.2C260.1 11.3 261 10.9 262.1 10.9C262.6 10.9 263.1 11 263.5 11.2C263.9 11.4 264.2 11.6 264.4 11.9C264.6 12.2 264.8 12.5 264.8 12.9C264.9 13.2 264.9 13.6 264.9 14.3V19.4H263.5V14.4C263.5 13.8 263.4 13.4 263.3 13.1C263.2 12.8 263 12.6 262.7 12.4C262.4 12.2 262.1 12.2 261.7 12.2C261.1 12.2 260.6 12.4 260.2 12.8C259.8 13.2 259.6 13.9 259.6 15V19.5H258.2V19.3ZM272.4 19.3V18.3C271.9 19.1 271.1 19.5 270.1 19.5C269.4 19.5 268.8 19.3 268.3 19C267.8 18.6 267.3 18.1 267 17.5C266.7 16.9 266.5 16.1 266.5 15.3C266.5 14.5 266.6 13.7 266.9 13.1C267.2 12.4 267.6 11.9 268.1 11.6C268.6 11.2 269.3 11.1 269.9 11.1C270.4 11.1 270.8 11.2 271.2 11.4C271.6 11.6 271.9 11.9 272.1 12.2V7.90002H273.5V19.3H272.4ZM268 15.1C268 16.2 268.2 16.9 268.7 17.5C269.1 18 269.7 18.3 270.3 18.3C270.9 18.3 271.4 18.1 271.9 17.6C272.3 17.1 272.5 16.3 272.5 15.3C272.5 14.2 272.3 13.4 271.8 12.8C271.4 12.3 270.8 12 270.2 12C269.6 12 269.1 12.3 268.6 12.8C268.2 13.3 268 14.1 268 15.1ZM283.3 18L283.5 19.2C283.1 19.3 282.8 19.3 282.4 19.3C281.9 19.3 281.5 19.2 281.2 19.1C280.9 19 280.7 18.7 280.6 18.5C280.5 18.3 280.4 17.7 280.4 16.8V12H279.4V11H280.4V9.00002L281.8 8.20002V11H283.2V12.1H281.8V16.9C281.8 17.3 281.8 17.6 281.9 17.7C281.9 17.8 282 17.9 282.1 18C282.2 18.1 282.4 18.1 282.6 18.1C282.9 18.1 283.1 18 283.3 18ZM284.7 19.3V7.90002H286.1V12C286.7 11.2 287.6 10.9 288.6 10.9C289.2 10.9 289.7 11 290.2 11.3C290.6 11.5 291 11.9 291.2 12.3C291.4 12.7 291.5 13.3 291.5 14.1V19.3H290V14C290 13.3 289.8 12.8 289.6 12.5C289.3 12.2 288.9 12 288.3 12C287.9 12 287.5 12.1 287.1 12.3C286.7 12.5 286.5 12.8 286.3 13.2C286.1 13.6 286.1 14.1 286.1 14.7V19.2H284.7V19.3ZM299.1 16.6L300.5 16.8C300.3 17.6 299.9 18.3 299.2 18.8C298.6 19.3 297.8 19.5 296.8 19.5C295.6 19.5 294.6 19.1 293.9 18.4C293.2 17.7 292.8 16.6 292.8 15.3C292.8 13.9 293.2 12.8 293.9 12.1C294.6 11.3 295.5 11 296.7 11C297.8 11 298.7 11.4 299.4 12.1C300.1 12.8 300.4 13.9 300.4 15.3C300.4 15.4 300.4 15.5 300.4 15.7H294.3C294.4 16.6 294.6 17.3 295.1 17.8C295.6 18.3 296.1 18.5 296.8 18.5C297.3 18.5 297.7 18.4 298.1 18.1C298.6 17.6 298.9 17.2 299.1 16.6ZM294.6 14.3H299.2C299.1 13.6 299 13.1 298.7 12.7C298.3 12.2 297.7 11.9 297 11.9C296.4 11.9 295.8 12.1 295.4 12.5C294.9 13 294.6 13.6 294.6 14.3ZM308.1 19.3H306.8V7.90002H308.2V12C308.8 11.3 309.5 10.9 310.5 10.9C311 10.9 311.5 11 311.9 11.2C312.4 11.4 312.7 11.7 313 12.1C313.3 12.5 313.5 12.9 313.7 13.4C313.9 13.9 313.9 14.5 313.9 15.1C313.9 16.5 313.5 17.6 312.9 18.4C312.2 19.2 311.4 19.6 310.4 19.6C309.4 19.6 308.7 19.2 308.1 18.4V19.3ZM308 15.1C308 16.1 308.1 16.8 308.4 17.2C308.8 17.9 309.4 18.3 310.2 18.3C310.8 18.3 311.3 18 311.8 17.5C312.2 17 312.5 16.2 312.5 15.1C312.5 14 312.3 13.2 311.9 12.7C311.5 12.2 311 11.9 310.4 11.9C309.8 11.9 309.3 12.2 308.8 12.7C308.3 13.3 308 14.1 308 15.1ZM321.2 16.6L322.6 16.8C322.4 17.6 322 18.3 321.3 18.8C320.7 19.3 319.9 19.5 318.9 19.5C317.7 19.5 316.7 19.1 316 18.4C315.3 17.7 314.9 16.6 314.9 15.3C314.9 13.9 315.3 12.8 316 12.1C316.7 11.3 317.6 11 318.8 11C319.9 11 320.8 11.4 321.5 12.1C322.2 12.8 322.5 13.9 322.5 15.3C322.5 15.4 322.5 15.5 322.5 15.7H316.4C316.5 16.6 316.7 17.3 317.2 17.8C317.7 18.3 318.2 18.5 318.9 18.5C319.4 18.5 319.8 18.4 320.2 18.1C320.7 17.6 321 17.2 321.2 16.6ZM316.6 14.3H321.2C321.1 13.6 321 13.1 320.7 12.7C320.3 12.2 319.7 11.9 319 11.9C318.4 11.9 317.8 12.1 317.4 12.5C316.9 13 316.7 13.6 316.6 14.3ZM323.9 16.8L325.3 16.6C325.4 17.2 325.6 17.6 325.9 17.9C326.3 18.2 326.7 18.3 327.4 18.3C328 18.3 328.5 18.2 328.8 17.9C329.1 17.6 329.3 17.3 329.3 17C329.3 16.7 329.2 16.4 328.9 16.3C328.7 16.2 328.2 16 327.5 15.8C326.5 15.5 325.8 15.3 325.4 15.1C325 14.9 324.7 14.6 324.5 14.3C324.3 14 324.2 13.6 324.2 13.2C324.2 12.8 324.3 12.5 324.5 12.2C324.7 11.9 324.9 11.6 325.2 11.4C325.4 11.2 325.7 11.1 326.1 11C326.5 10.9 326.9 10.8 327.3 10.8C327.9 10.8 328.5 10.9 329 11.1C329.5 11.3 329.8 11.5 330.1 11.9C330.3 12.2 330.5 12.6 330.6 13.2L329.2 13.4C329.1 13 329 12.6 328.7 12.4C328.4 12.2 328 12 327.4 12C326.8 12 326.3 12.1 326 12.3C325.7 12.5 325.6 12.8 325.6 13C325.6 13.2 325.7 13.3 325.8 13.5C325.9 13.7 326.1 13.8 326.3 13.9C326.4 14 326.8 14.1 327.5 14.3C328.5 14.6 329.2 14.8 329.6 14.9C330 15.1 330.3 15.3 330.5 15.6C330.7 15.9 330.8 16.3 330.8 16.8C330.8 17.3 330.7 17.7 330.4 18.1C330.1 18.5 329.7 18.8 329.2 19.1C328.7 19.3 328.1 19.4 327.5 19.4C326.4 19.4 325.6 19.2 325.1 18.7C324.4 18.3 324 17.7 323.9 16.8ZM335.4 18L335.6 19.2C335.2 19.3 334.9 19.3 334.5 19.3C334 19.3 333.6 19.2 333.3 19.1C333 18.9 332.8 18.7 332.7 18.5C332.6 18.2 332.5 17.7 332.5 16.8V12H331.5V11H332.5V9.00002L333.9 8.20002V11H335.3V12.1H334V16.9C334 17.3 334 17.6 334.1 17.7C334.1 17.8 334.2 17.9 334.3 18C334.4 18.1 334.6 18.1 334.8 18.1C334.9 18.1 335.1 18 335.4 18ZM250.4 35.8L251.8 36C251.6 36.9 251.3 37.7 250.7 38.2C250.1 38.7 249.3 39 248.4 39C247.3 39 246.4 38.6 245.7 37.9C245 37.2 244.7 36.1 244.7 34.7C244.7 33.8 244.8 33 245.1 32.4C245.4 31.7 245.8 31.2 246.4 30.9C247 30.6 247.7 30.4 248.4 30.4C249.3 30.4 250 30.6 250.6 31.1C251.2 31.6 251.5 32.2 251.7 33L250.3 33.2C250.2 32.6 249.9 32.2 249.6 32C249.3 31.7 248.9 31.6 248.4 31.6C247.7 31.6 247.1 31.9 246.7 32.4C246.3 32.9 246 33.7 246 34.8C246 35.9 246.2 36.7 246.6 37.2C247 37.7 247.6 38 248.3 38C248.8 38 249.3 37.8 249.7 37.5C250 37 250.3 36.5 250.4 35.8ZM252.9 38.8V30.6H254.2V31.9C254.5 31.3 254.8 30.9 255.1 30.7C255.4 30.5 255.7 30.4 256 30.4C256.5 30.4 257 30.5 257.4 30.8L256.9 32.1C256.6 31.9 256.2 31.8 255.9 31.8C255.6 31.8 255.3 31.9 255.1 32.1C254.9 32.3 254.7 32.5 254.6 32.9C254.4 33.4 254.4 33.9 254.4 34.5V38.8H252.9ZM263.8 36.1L265.2 36.3C265 37.1 264.6 37.8 263.9 38.3C263.3 38.8 262.5 39 261.5 39C260.3 39 259.3 38.6 258.6 37.9C257.9 37.2 257.5 36.1 257.5 34.8C257.5 33.4 257.9 32.3 258.6 31.6C259.3 30.8 260.2 30.5 261.4 30.5C262.5 30.5 263.4 30.9 264.1 31.6C264.8 32.3 265.1 33.4 265.1 34.8C265.1 34.9 265.1 35 265.1 35.2H259C259.1 36.1 259.3 36.8 259.8 37.3C260.3 37.8 260.8 38 261.5 38C262 38 262.4 37.9 262.8 37.6C263.3 37.1 263.6 36.7 263.8 36.1ZM259.3 33.9H263.9C263.8 33.2 263.7 32.7 263.4 32.3C263 31.8 262.4 31.5 261.7 31.5C261.1 31.5 260.5 31.7 260.1 32.1C259.6 32.6 259.3 33.1 259.3 33.9ZM272.4 38.8V37.8C271.9 38.6 271.1 39 270.1 39C269.4 39 268.8 38.8 268.3 38.5C267.8 38.1 267.3 37.6 267 37C266.7 36.4 266.5 35.6 266.5 34.8C266.5 34 266.6 33.2 266.9 32.6C267.2 32 267.6 31.4 268.1 31.1C268.6 30.7 269.3 30.6 269.9 30.6C270.4 30.6 270.8 30.7 271.2 30.9C271.6 31.1 271.9 31.4 272.1 31.7V27.6H273.5V39L272.4 38.8ZM268 34.7C268 35.8 268.2 36.5 268.7 37.1C269.1 37.6 269.7 37.9 270.3 37.9C270.9 37.9 271.4 37.7 271.9 37.2C272.4 36.7 272.5 35.9 272.5 34.9C272.5 33.8 272.3 33 271.8 32.4C271.4 31.9 270.8 31.6 270.2 31.6C269.6 31.6 269.1 31.9 268.6 32.4C268.2 32.8 268 33.6 268 34.7ZM275.9 29V27.4H277.3V29H275.9ZM275.9 38.8V30.6H277.3V38.8H275.9ZM282.4 37.5L282.6 38.7C282.2 38.8 281.9 38.8 281.5 38.8C281 38.8 280.6 38.7 280.3 38.6C280 38.4 279.8 38.2 279.7 38C279.6 37.7 279.5 37.2 279.5 36.3V31.5H278.5V30.4H279.5V28.4L280.9 27.6V30.5H282.3V31.6H281V36.4C281 36.8 281 37.1 281.1 37.2C281.1 37.3 281.2 37.4 281.3 37.5C281.4 37.6 281.6 37.6 281.8 37.6C282 37.6 282.2 37.6 282.4 37.5ZM293.6 35.8L295 36C294.8 36.9 294.5 37.7 293.9 38.2C293.3 38.7 292.5 39 291.6 39C290.5 39 289.6 38.6 288.9 37.9C288.2 37.2 287.9 36.1 287.9 34.7C287.9 33.8 288 33 288.3 32.4C288.6 31.7 289 31.2 289.6 30.9C290.2 30.6 290.9 30.4 291.6 30.4C292.5 30.4 293.2 30.6 293.8 31.1C294.4 31.6 294.7 32.2 294.9 33L293.5 33.2C293.4 32.6 293.1 32.2 292.8 32C292.5 31.7 292.1 31.6 291.6 31.6C290.9 31.6 290.3 31.9 289.9 32.4C289.5 32.9 289.2 33.7 289.2 34.8C289.2 35.9 289.4 36.7 289.8 37.2C290.2 37.7 290.8 38 291.5 38C292 38 292.5 37.8 292.9 37.5C293.3 37 293.5 36.5 293.6 35.8ZM301.5 37.7C301 38.1 300.5 38.5 300 38.6C299.5 38.8 299 38.9 298.5 38.9C297.6 38.9 296.9 38.7 296.4 38.2C295.9 37.8 295.7 37.2 295.7 36.5C295.7 36.1 295.8 35.7 296 35.4C296.2 35.1 296.4 34.8 296.7 34.6C297 34.4 297.3 34.2 297.7 34.1C298 34 298.4 34 298.9 33.9C300 33.8 300.9 33.6 301.4 33.4C301.4 33.2 301.4 33.1 301.4 33C301.4 32.4 301.3 32 301 31.8C300.6 31.5 300.1 31.3 299.4 31.3C298.7 31.3 298.3 31.4 297.9 31.6C297.6 31.8 297.4 32.2 297.2 32.8L295.8 32.6C295.9 32 296.1 31.5 296.4 31.2C296.7 30.8 297.1 30.6 297.6 30.4C298.1 30.2 298.8 30.1 299.5 30.1C300.2 30.1 300.8 30.2 301.2 30.3C301.6 30.5 302 30.7 302.2 30.9C302.4 31.2 302.6 31.5 302.6 31.9C302.6 32.1 302.7 32.6 302.7 33.2V35.1C302.7 36.4 302.7 37.2 302.8 37.6C302.9 37.9 303 38.3 303.1 38.6H301.6C301.7 38.5 301.6 38.1 301.5 37.7ZM301.4 34.7C300.9 34.9 300.1 35.1 299.1 35.2C298.5 35.3 298.1 35.4 297.9 35.5C297.7 35.6 297.5 35.8 297.4 36C297.3 36.2 297.2 36.4 297.2 36.7C297.2 37.1 297.3 37.4 297.6 37.6C297.9 37.8 298.3 38 298.8 38C299.3 38 299.8 37.9 300.2 37.6C300.6 37.4 300.9 37 301.1 36.6C301.3 36.3 301.3 35.8 301.3 35.2L301.4 34.7ZM305 38.8V30.6H306.3V31.9C306.6 31.3 306.9 30.9 307.2 30.7C307.5 30.5 307.8 30.4 308.1 30.4C308.6 30.4 309 30.5 309.5 30.8L309 32.1C308.7 31.9 308.3 31.8 308 31.8C307.7 31.8 307.4 31.9 307.2 32.1C307 32.3 306.8 32.5 306.7 32.9C306.5 33.4 306.5 33.9 306.5 34.5V38.8H305ZM315.6 38.8V37.8C315.1 38.6 314.3 39 313.3 39C312.6 39 312 38.8 311.5 38.5C311 38.1 310.5 37.6 310.2 37C309.9 36.4 309.7 35.6 309.7 34.8C309.7 34 309.8 33.2 310.1 32.6C310.4 31.9 310.8 31.4 311.3 31.1C311.8 30.7 312.5 30.6 313.1 30.6C313.6 30.6 314 30.7 314.4 30.9C314.8 31.1 315.1 31.4 315.3 31.7V27.6H316.7V39L315.6 38.8ZM311.2 34.7C311.2 35.8 311.4 36.5 311.9 37.1C312.3 37.6 312.9 37.9 313.5 37.9C314.1 37.9 314.6 37.7 315.1 37.2C315.6 36.7 315.7 35.9 315.7 34.9C315.7 33.8 315.5 33 315 32.4C314.6 31.9 314 31.6 313.4 31.6C312.8 31.6 312.3 31.9 311.8 32.4C311.4 32.8 311.2 33.6 311.2 34.7ZM323 34.7C323 33.2 323.4 32 324.3 31.3C325 30.7 325.9 30.4 326.9 30.4C328 30.4 329 30.8 329.7 31.5C330.4 32.2 330.8 33.3 330.8 34.6C330.8 35.7 330.6 36.5 330.3 37.1C330 37.7 329.5 38.2 328.9 38.5C328.3 38.8 327.6 39 326.9 39C325.7 39 324.8 38.6 324.1 37.9C323.3 37.1 323 36 323 34.7ZM324.4 34.7C324.4 35.8 324.6 36.5 325.1 37.1C325.6 37.6 326.1 37.9 326.8 37.9C327.5 37.9 328.1 37.6 328.5 37.1C329 36.6 329.2 35.8 329.2 34.7C329.2 33.7 329 32.9 328.5 32.4C328 31.9 327.5 31.6 326.8 31.6C326.1 31.6 325.5 31.9 325.1 32.4C324.7 32.8 324.4 33.6 324.4 34.7ZM332.7 38.8V31.6H331.5V30.5H332.7V29.6C332.7 29 332.7 28.6 332.8 28.4C332.9 28 333.2 27.7 333.5 27.5C333.8 27.3 334.3 27.2 334.9 27.2C335.3 27.2 335.7 27.2 336.2 27.3L336 28.5C335.7 28.5 335.4 28.4 335.2 28.4C334.8 28.4 334.5 28.5 334.3 28.7C334.1 28.9 334 29.2 334 29.7V30.5H335.6V31.6H334V38.8H332.7ZM336.8 38.8V31.6H335.6V30.5H336.8V29.6C336.8 29 336.8 28.6 336.9 28.4C337 28 337.3 27.7 337.6 27.5C337.9 27.3 338.4 27.2 339 27.2C339.4 27.2 339.8 27.2 340.3 27.3L340.1 28.5C339.8 28.5 339.5 28.4 339.3 28.4C338.9 28.4 338.6 28.5 338.4 28.7C338.2 28.9 338.1 29.2 338.1 29.7V30.5H339.7V31.6H338.1V38.8H336.8ZM346.5 36.1L347.9 36.3C347.7 37.1 347.3 37.8 346.6 38.3C346 38.8 345.2 39 344.2 39C343 39 342 38.6 341.3 37.9C340.6 37.2 340.2 36.1 340.2 34.8C340.2 33.4 340.6 32.3 341.3 31.6C342 30.8 342.9 30.5 344.1 30.5C345.2 30.5 346.1 30.9 346.8 31.6C347.5 32.3 347.8 33.4 347.8 34.8C347.8 34.9 347.8 35 347.8 35.2H341.7C341.8 36.1 342 36.8 342.5 37.3C343 37.8 343.5 38 344.2 38C344.7 38 345.1 37.9 345.5 37.6C346 37.1 346.3 36.7 346.5 36.1ZM341.9 33.9H346.5C346.4 33.2 346.3 32.7 346 32.3C345.6 31.8 345 31.5 344.3 31.5C343.7 31.5 343.1 31.7 342.7 32.1C342.3 32.5 342 33.1 341.9 33.9ZM349.7 38.8V30.6H351V31.9C351.3 31.3 351.6 30.9 351.9 30.7C352.2 30.5 352.5 30.4 352.8 30.4C353.3 30.4 353.7 30.5 354.2 30.8L353.7 32.1C353.4 31.9 353 31.8 352.7 31.8C352.4 31.8 352.1 31.9 351.9 32.1C351.7 32.3 351.5 32.5 351.4 32.9C351.2 33.4 351.2 33.9 351.2 34.5V38.8C351.1 38.8 349.7 38.8 349.7 38.8ZM354.4 36.3L355.8 36.1C355.9 36.7 356.1 37.1 356.4 37.4C356.8 37.7 357.3 37.8 357.9 37.8C358.5 37.8 359 37.7 359.3 37.4C359.6 37.1 359.8 36.8 359.8 36.5C359.8 36.2 359.7 35.9 359.4 35.8C359.2 35.7 358.7 35.5 358 35.3C357 35 356.3 34.8 355.9 34.6C355.5 34.4 355.2 34.1 355 33.8C354.8 33.5 354.7 33.1 354.7 32.7C354.7 32.3 354.8 32 354.9 31.7C355.1 31.4 355.3 31.1 355.6 30.9C355.8 30.7 356.1 30.6 356.5 30.5C356.9 30.4 357.3 30.3 357.7 30.3C358.3 30.3 358.9 30.4 359.4 30.6C359.9 30.8 360.2 31 360.5 31.4C360.7 31.7 360.9 32.1 361 32.7L359.6 32.9C359.5 32.5 359.4 32.1 359.1 31.9C358.8 31.7 358.4 31.5 357.8 31.5C357.2 31.5 356.7 31.6 356.4 31.8C356.1 32 356 32.3 356 32.5C356 32.7 356.1 32.8 356.2 33C356.3 33.1 356.5 33.3 356.7 33.4C356.8 33.5 357.2 33.6 357.9 33.8C358.9 34.1 359.6 34.3 360 34.4C360.4 34.6 360.7 34.8 360.9 35.1C361.1 35.4 361.2 35.8 361.2 36.3C361.2 36.8 361.1 37.2 360.8 37.6C360.5 38 360.1 38.3 359.6 38.6C359.1 38.8 358.5 38.9 357.9 38.9C356.8 38.9 356 38.7 355.5 38.2C355 37.8 354.6 37.2 354.4 36.3ZM366.8 34.7C366.8 33.2 367.2 32 368.1 31.3C368.8 30.7 369.7 30.4 370.7 30.4C371.8 30.4 372.8 30.8 373.5 31.5C374.2 32.2 374.6 33.3 374.6 34.6C374.6 35.7 374.4 36.5 374.1 37.1C373.8 37.7 373.3 38.2 372.7 38.5C372.1 38.8 371.4 39 370.7 39C369.5 39 368.6 38.6 367.9 37.9C367.2 37.1 366.8 36 366.8 34.7ZM368.3 34.7C368.3 35.8 368.5 36.5 369 37.1C369.5 37.6 370 37.9 370.7 37.9C371.4 37.9 372 37.6 372.4 37.1C372.9 36.6 373.1 35.8 373.1 34.7C373.1 33.7 372.9 32.9 372.4 32.4C371.9 31.9 371.4 31.6 370.7 31.6C370 31.6 369.4 31.9 369 32.4C368.5 32.8 368.3 33.6 368.3 34.7ZM376.2 38.8V30.6H377.5V31.8C378.1 30.9 379 30.5 380.1 30.5C380.6 30.5 381.1 30.6 381.5 30.8C381.9 31 382.2 31.2 382.4 31.5C382.6 31.8 382.8 32.1 382.8 32.5C382.9 32.8 382.9 33.2 382.9 33.9V39H381.5V34C381.5 33.4 381.4 33 381.3 32.7C381.2 32.4 381 32.2 380.7 32C380.4 31.8 380.1 31.7 379.7 31.7C379.1 31.7 378.6 31.9 378.2 32.3C377.8 32.7 377.6 33.4 377.6 34.4V38.9H376.2V38.8ZM385 38.8V27.4H386.4V38.8H385ZM388.5 29V27.4H389.9V29H388.5ZM388.5 38.8V30.6H389.9V38.8H388.5ZM392.1 38.8V30.6H393.4V31.8C394 30.9 394.9 30.5 396 30.5C396.5 30.5 397 30.6 397.4 30.8C397.8 31 398.1 31.2 398.3 31.5C398.5 31.8 398.7 32.1 398.7 32.5C398.7 32.8 398.8 33.2 398.8 33.9V39H397.4V34C397.4 33.4 397.3 33 397.2 32.7C397.1 32.4 396.9 32.2 396.6 32C396.3 31.8 396 31.7 395.6 31.7C395 31.7 394.5 31.9 394.1 32.3C393.7 32.7 393.5 33.4 393.5 34.4V38.9H392.1V38.8ZM406.5 36.1L407.9 36.3C407.7 37.1 407.3 37.8 406.6 38.3C406 38.8 405.2 39 404.2 39C403 39 402 38.6 401.3 37.9C400.6 37.2 400.2 36.1 400.2 34.8C400.2 33.4 400.6 32.3 401.3 31.6C402 30.8 402.9 30.5 404.1 30.5C405.2 30.5 406.1 30.9 406.8 31.6C407.5 32.3 407.8 33.4 407.8 34.8C407.8 34.9 407.8 35 407.8 35.2H401.7C401.8 36.1 402 36.8 402.5 37.3C403 37.8 403.5 38 404.2 38C404.7 38 405.1 37.9 405.5 37.6C406 37.1 406.3 36.7 406.5 36.1ZM401.9 33.9H406.5C406.4 33.2 406.3 32.7 406 32.3C405.6 31.8 405 31.5 404.3 31.5C403.7 31.5 403.1 31.7 402.7 32.1C402.2 32.6 402 33.1 401.9 33.9Z" fill="#009EE8"/>
<path fill-rule="evenodd" clip-rule="evenodd" d="M63 40.7V8.3C63 5.9 61.2 4 58.9 4H4.30001C2.00001 4 0.100006 5.9 0.100006 8.3V40.7C0.100006 43.1 2.00001 45 4.30001 45H58.9C61.2 45 63 43.1 63 40.7Z" fill="#009EE8"/>
<path fill-rule="evenodd" clip-rule="evenodd" d="M0.100006 40.9C0.200006 43.2 2.10001 45 4.30001 45H27.8L32.9 39.8C32.4 40.2 31.7 40.5 31 40.5H29.1H24.4H11.7C9.50001 40.5 7.40001 39.6 5.90001 38.1C3.20001 35 1.80001 36.9 0.800006 36.9H0.400006C0.300006 36.9 0.200006 36.9 0.100006 36.9C0.100006 36.9 0.100006 40.9 0.100006 40.9Z" fill="#005898"/>
<path fill-rule="evenodd" clip-rule="evenodd" d="M0 17.2V37.9C0.7 37.3 1.7 36.9 2.7 36.9H3.1C4.2 36.9 5.2 37.3 6 38.1C7.5 39.6 9.6 40.5 11.8 40.5H24.5H29.2H31C32.7 40.5 34.1 39.1 34.1 37.4C34.1 35.8 33 34.5 31.5 34.3C33 34 34.1 32.8 34.1 31.2C34.1 29.6 32.9 28.3 31.4 28.1C32.9 27.8 34.1 26.2 34.1 24.6C34.1 23.1 33.1 21.9 31.7 21.5H44.7C46.4 21.5 47.8 20.1 47.8 18.4C47.8 16.7 46.4 15.3 44.7 15.3H29.1H26.4H25.4C26.5 14.9 27.3 13.8 27.3 12.5C27.3 10.8 25.9 9.5 24.3 9.5H14.9C13.9 9.5 12.9 9.9 12.1 10.6L6 16.6C5.2 17.4 4.1 17.8 3 17.8H2.1C1.3 17.7 0.6 17.5 0 17.2Z" fill="white"/>
<path d="M46.6 20.8C46.1 21.2 45.4 21.5 44.6 21.5H31.6C33 21.8 34 23.1 34 24.6C34 26.2 32.8 27.8 31.3 28.1C32.8 28.3 34 29.6 34 31.2C34 32.7 32.9 34 31.4 34.3C31.8 34.4 32.3 34.5 32.6 34.8C32.7 34.8 46.6 20.8 46.6 20.8Z" fill="#005898"/>
<path d="M230.1 0.200012C230.1 17.8 230.1 31.3 230.1 48.9" stroke="#009EE8" stroke-width="0.2403" stroke-miterlimit="68.8543"/>
</svg>
